<svg xmlns="http://www.w3.org/2000/svg" xmlns:xlink="http://www.w3.org/1999/xlink" overflow="hidden" viewBox="0 0 1458 1245"><defs><clipPath id="clip0"><rect x="1471" y="615" width="1458" height="1245"/></clipPath></defs><g clip-path="url(#clip0)" transform="translate(-1471 -615)"><path d="M389.561 855.302C281.986 855.302 194.78 942.539 194.78 1050.15 194.78 1157.76 281.986 1245 389.561 1245 497.135 1245 584.341 1157.76 584.341 1050.15 584.341 942.539 497.135 855.302 389.561 855.302ZM1068.45 855.302C960.878 855.302 873.672 942.539 873.672 1050.15 873.672 1157.76 960.878 1245 1068.45 1245 1176.03 1245 1263.23 1157.76 1263.23 1050.15 1263.23 942.539 1176.03 855.302 1068.45 855.302ZM1263.22 427.652C1155.65 427.652 1068.44 514.888 1068.44 622.5 1068.44 730.112 1155.65 817.349 1263.22 817.349 1370.79 817.349 1458 730.112 1458 622.5 1458 514.888 1370.79 427.652 1263.22 427.652ZM194.78 427.651C87.206 427.651 0 514.888 0 622.5 0 730.112 87.206 817.349 194.78 817.349 302.355 817.349 389.561 730.112 389.561 622.5 389.561 514.888 302.355 427.651 194.78 427.651ZM389.561 0C281.986 0 194.78 87.2367 194.78 194.849 194.78 302.461 281.986 389.698 389.561 389.698 497.135 389.698 584.341 302.461 584.341 194.849 584.341 87.2367 497.135 0 389.561 0ZM1068.44 0C960.865 0 873.659 87.2367 873.659 194.849 873.659 302.461 960.865 389.698 1068.44 389.698 1176.01 389.698 1263.22 302.461 1263.22 194.849 1263.22 87.2367 1176.01 0 1068.44 0Z" fill="#FFFFFF" fill-rule="evenodd" transform="matrix(-1 0 0 1 2929 615)"/></g></svg>